<svg width="32" height="32" viewBox="0 0 32 32" fill="none" xmlns="http://www.w3.org/2000/svg">
<g clip-path="url(#clip0_638_411)">
<path d="M32 16C32 7.16344 24.8366 0 16 0C7.16344 0 0 7.16344 0 16C0 24.8366 7.16344 32 16 32C24.8366 32 32 24.8366 32 16Z" fill="#DBCC91"/>
<path opacity="0.1" d="M28.0421 5.47368C25.7095 9.75579 22.4105 14.1726 18.2884 18.2947C14.1663 22.4168 9.74948 25.7095 5.47369 28.0421C5.20562 27.8091 4.94527 27.5663 4.69264 27.3137C3.1656 25.8376 1.94771 24.0723 1.10998 22.1207C0.272245 20.1691 -0.168558 18.0702 -0.186731 15.9465C-0.204904 13.8227 0.199917 11.7166 1.00413 9.75097C1.80834 7.7853 2.99584 5.99942 4.4974 4.49744C5.99895 2.99547 7.78451 1.80746 9.74995 1.00271C11.7154 0.197947 13.8214 -0.207462 15.9451 -0.189881C18.0689 -0.172301 20.1679 0.267916 22.1197 1.1051C24.0716 1.94229 25.8372 3.15969 27.3137 4.68631C27.5663 4.93894 27.8091 5.2014 28.0421 5.47368Z" fill="black"/>
<path d="M19.7895 7.5791H12.2106C10.9822 7.5791 9.80413 8.06707 8.93554 8.93566C8.06695 9.80425 7.57898 10.9823 7.57898 12.2107V19.7896C7.57898 21.018 8.06695 22.1961 8.93554 23.0646C9.80413 23.9332 10.9822 24.4212 12.2106 24.4212H19.7895C21.0179 24.4212 22.1959 23.9332 23.0645 23.0646C23.9331 22.1961 24.4211 21.018 24.4211 19.7896V12.2107C24.4211 10.9823 23.9331 9.80425 23.0645 8.93566C22.1959 8.06707 21.0179 7.5791 19.7895 7.5791ZM22.9474 19.1244C22.9474 20.1383 22.5446 21.1108 21.8276 21.8277C21.1106 22.5447 20.1382 22.9475 19.1242 22.9475H12.8758C11.8619 22.9475 10.8894 22.5447 10.1724 21.8277C9.45546 21.1108 9.05266 20.1383 9.05266 19.1244V12.8759C9.05266 11.862 9.45546 10.8895 10.1724 10.1726C10.8894 9.45558 11.8619 9.05279 12.8758 9.05279H19.1242C20.1382 9.05279 21.1106 9.45558 21.8276 10.1726C22.5446 10.8895 22.9474 11.862 22.9474 12.8759V19.1244Z" fill="black"/>
<path d="M19.0716 12.96L19.0316 12.92L18.9979 12.8863C18.2019 12.0931 17.1238 11.6479 16.0001 11.6484C15.4326 11.6523 14.8714 11.7679 14.3486 11.9887C13.8258 12.2095 13.3516 12.5312 12.9532 12.9353C12.5548 13.3394 12.2399 13.8181 12.0265 14.3439C11.8131 14.8698 11.7054 15.4325 11.7095 16C11.7087 17.1517 12.1626 18.2571 12.9727 19.0758C13.3695 19.4774 13.8423 19.7959 14.3635 20.0128C14.8847 20.2297 15.4439 20.3406 16.0085 20.339C16.8553 20.3212 17.6786 20.0574 18.3781 19.5798C19.0776 19.1021 19.6229 18.4312 19.9477 17.6489C20.2724 16.8667 20.3625 16.0068 20.2069 15.1742C20.0514 14.3416 19.6569 13.5723 19.0716 12.96ZM16.0001 18.8548C15.4338 18.8627 14.878 18.702 14.4033 18.3932C13.9286 18.0844 13.5565 17.6414 13.3343 17.1205C13.1121 16.5996 13.0498 16.0244 13.1554 15.468C13.261 14.9116 13.5297 14.3992 13.9273 13.996C14.3249 13.5927 14.8334 13.3168 15.3882 13.2034C15.9431 13.09 16.5191 13.1441 17.0431 13.359C17.567 13.5738 18.0153 13.9396 18.3308 14.4099C18.6463 14.8802 18.8147 15.4337 18.8148 16C18.8176 16.3723 18.7469 16.7415 18.607 17.0865C18.467 17.4315 18.2604 17.7455 17.999 18.0107C17.7376 18.2758 17.4265 18.4868 17.0835 18.6316C16.7405 18.7765 16.3724 18.8523 16.0001 18.8548Z" fill="black"/>
<path d="M21.5642 11.4486C21.5653 11.5837 21.5398 11.7176 21.489 11.8429C21.4383 11.9681 21.3634 12.082 21.2685 12.1782C21.1737 12.2745 21.0608 12.351 20.9363 12.4035C20.8119 12.4561 20.6783 12.4835 20.5432 12.4844C20.4092 12.4843 20.2766 12.4577 20.153 12.406C20.0294 12.3543 19.9173 12.2786 19.8232 12.1833C19.6805 12.0386 19.5835 11.8552 19.5442 11.6559C19.5048 11.4566 19.5248 11.2501 19.6017 11.062C19.6785 10.8739 19.8089 10.7126 19.9767 10.5979C20.1444 10.4832 20.3421 10.4203 20.5453 10.417C20.783 10.4169 21.0133 10.5004 21.1958 10.6528L21.2168 10.6738C21.2508 10.7015 21.2818 10.7325 21.3095 10.7665L21.3326 10.7917C21.4833 10.9774 21.5652 11.2095 21.5642 11.4486Z" fill="black"/>
</g>
<defs>
<clipPath id="clip0_638_411">
<rect width="32" height="32" fill="white"/>
</clipPath>
</defs>
</svg>
