<svg width="15" height="15" viewBox="0 0 15 15" fill="none" xmlns="http://www.w3.org/2000/svg">
<path d="M8.53199 2.16857L9.64001 4.40294C9.79113 4.71397 10.194 5.01231 10.534 5.06944L12.5423 5.40586C13.8266 5.62168 14.1288 6.56114 13.2033 7.48789L11.642 9.06209C11.3776 9.32867 11.2329 9.84283 11.3146 10.211L11.7617 12.1597C12.1142 13.7022 11.302 14.2989 9.94853 13.4927L8.06613 12.3692C7.72619 12.1661 7.16589 12.1661 6.81959 12.3692L4.93723 13.4927C3.58997 14.2989 2.77154 13.6958 3.1241 12.1597L3.57108 10.211C3.65292 9.84283 3.50813 9.32867 3.24371 9.06209L1.6824 7.48789C0.763245 6.56114 1.05914 5.62168 2.34344 5.40586L4.35174 5.06944C4.6854 5.01231 5.08832 4.71397 5.23941 4.40294L6.34743 2.16857C6.95181 0.956178 7.93391 0.956178 8.53199 2.16857Z" fill="#FEF2CD" stroke="#FEF2CD" stroke-width="0.944444" stroke-linecap="round" stroke-linejoin="round"/>
</svg>
