<svg width="15" height="15" viewBox="0 0 15 15" fill="none" xmlns="http://www.w3.org/2000/svg">
<path d="M8.64332 2.16857L9.75134 4.40294C9.90245 4.71397 10.3054 5.01231 10.6454 5.06944L12.6536 5.40586C13.9379 5.62168 14.2402 6.56114 13.3147 7.48789L11.7534 9.06209C11.4889 9.32867 11.3442 9.84283 11.426 10.211L11.873 12.1597C12.2255 13.7022 11.4134 14.2989 10.0599 13.4927L8.17746 12.3692C7.83752 12.1661 7.27721 12.1661 6.93092 12.3692L5.04856 13.4927C3.7013 14.2989 2.88287 13.6958 3.23543 12.1597L3.68241 10.211C3.76425 9.84283 3.61946 9.32867 3.35504 9.06209L1.79373 7.48789C0.874573 6.56114 1.17047 5.62168 2.45477 5.40586L4.46307 5.06944C4.79673 5.01231 5.19965 4.71397 5.35074 4.40294L6.45876 2.16857C7.06314 0.956178 8.04524 0.956178 8.64332 2.16857Z" fill="#FBBC05" stroke="#FBBC05" stroke-width="0.944444" stroke-linecap="round" stroke-linejoin="round"/>
</svg>
