<svg width="32" height="32" viewBox="0 0 32 32" fill="none" xmlns="http://www.w3.org/2000/svg">
<path d="M29.379 12.5793C29.2579 12.199 29.0249 11.8639 28.7105 11.618C28.396 11.372 28.0148 11.2265 27.6164 11.2005L20.4124 10.6963L17.74 3.96708C17.5954 3.59505 17.3417 3.27539 17.0123 3.04998C16.6829 2.82457 16.2931 2.70393 15.894 2.70386H15.8921C15.4935 2.70457 15.1045 2.82552 14.7758 3.0509C14.4471 3.27627 14.1941 3.59558 14.0498 3.96708L11.3377 10.7352L4.17342 11.2005C3.77506 11.2265 3.3938 11.372 3.07937 11.618C2.76494 11.8639 2.53195 12.199 2.41079 12.5793C2.28297 12.9651 2.27428 13.3804 2.38584 13.7712C2.49739 14.162 2.72403 14.5101 3.03624 14.7703L8.54778 19.429L6.90834 25.8777C6.79534 26.3121 6.81612 26.7705 6.96796 27.1929C7.1198 27.6152 7.39562 27.9819 7.75933 28.2449C8.11048 28.5004 8.5304 28.6443 8.96443 28.6578C9.39847 28.6713 9.82653 28.5539 10.1929 28.3208L15.8788 24.7187C15.8864 24.7131 15.894 24.7093 15.911 24.7187L22.0291 28.5946C22.3612 28.8068 22.7497 28.9139 23.1436 28.9017C23.5376 28.8895 23.9187 28.7587 24.2371 28.5264C24.5666 28.2882 24.8166 27.956 24.9542 27.5734C25.0919 27.1907 25.1108 26.7754 25.0085 26.3819L23.2667 19.337L28.7536 14.7703C29.0658 14.5101 29.2924 14.162 29.404 13.7712C29.5156 13.3804 29.5069 12.9651 29.379 12.5793Z" fill="#FBBC05"/>
</svg>
