<svg width="32" height="32" viewBox="0 0 32 32" fill="none" xmlns="http://www.w3.org/2000/svg">
<path d="M29.5369 12.5793C29.4157 12.199 29.1827 11.8639 28.8683 11.618C28.5539 11.372 28.1726 11.2265 27.7742 11.2005L20.5702 10.6963L17.8978 3.96708C17.7532 3.59505 17.4996 3.27539 17.1702 3.04998C16.8408 2.82457 16.4509 2.70393 16.0518 2.70386H16.0499C15.6514 2.70457 15.2623 2.82552 14.9336 3.0509C14.605 3.27627 14.3519 3.59558 14.2077 3.96708L11.4955 10.7352L4.33124 11.2005C3.93289 11.2265 3.55162 11.372 3.23719 11.618C2.92276 11.8639 2.68977 12.199 2.56861 12.5793C2.4408 12.9651 2.4321 13.3804 2.54366 13.7712C2.65521 14.162 2.88185 14.5101 3.19406 14.7703L8.7056 19.429L7.06616 25.8777C6.95316 26.3121 6.97394 26.7705 7.12578 27.1929C7.27762 27.6152 7.55345 27.9819 7.91715 28.2449C8.2683 28.5004 8.68822 28.6443 9.12226 28.6578C9.55629 28.6713 9.98435 28.5539 10.3507 28.3208L16.0366 24.7187C16.0442 24.7131 16.0518 24.7093 16.0688 24.7187L22.1869 28.5946C22.519 28.8068 22.9075 28.9139 23.3014 28.9017C23.6954 28.8895 24.0765 28.7587 24.3949 28.5264C24.7245 28.2882 24.9744 27.956 25.1121 27.5734C25.2497 27.1907 25.2686 26.7754 25.1663 26.3819L23.4245 19.337L28.9114 14.7703C29.2236 14.5101 29.4503 14.162 29.5618 13.7712C29.6734 13.3804 29.6647 12.9651 29.5369 12.5793Z" fill="#FBBC05" fill-opacity="0.2"/>
</svg>
