<svg width="43" height="22" viewBox="0 0 43 22" fill="none" xmlns="http://www.w3.org/2000/svg">
<g clip-path="url(#clip0_702_107)">
<path d="M0 0H43V22H0V0Z" fill="white"/>
<path d="M0 0H43V7.33333H0V0Z" fill="#F15B25"/>
<path d="M0 14.6665H43V21.9998H0V14.6665Z" fill="#006934"/>
<path d="M21.5 14.3917C23.9408 14.3917 25.9195 12.8732 25.9195 11.0001C25.9195 9.1269 23.9408 7.6084 21.5 7.6084C19.0592 7.6084 17.0806 9.1269 17.0806 11.0001C17.0806 12.8732 19.0592 14.3917 21.5 14.3917Z" fill="#2C2C6F"/>
<path d="M21.5 13.9336C23.611 13.9336 25.3222 12.6203 25.3222 11.0002C25.3222 9.38019 23.611 8.06689 21.5 8.06689C19.3891 8.06689 17.6778 9.38019 17.6778 11.0002C17.6778 12.6203 19.3891 13.9336 21.5 13.9336Z" fill="white"/>
<path d="M21.5 11.5869C21.9222 11.5869 22.2644 11.3242 22.2644 11.0002C22.2644 10.6762 21.9222 10.4136 21.5 10.4136C21.0778 10.4136 20.7355 10.6762 20.7355 11.0002C20.7355 11.3242 21.0778 11.5869 21.5 11.5869Z" fill="#2C2C6F"/>
<path d="M21.5001 8.06641L21.6434 9.83154L21.5001 10.7057L21.3568 9.83154L21.5001 8.06641Z" fill="#2C2C6F"/>
<path d="M21.9772 8.21898C22.0687 8.22823 22.1527 8.17876 22.1648 8.10849C22.1769 8.03822 22.1124 7.97376 22.0208 7.9645C21.9293 7.95525 21.8453 8.00472 21.8332 8.07499C21.8212 8.14526 21.8856 8.20972 21.9772 8.21898Z" fill="#2C2C6F"/>
<path d="M21.5 13.9336L21.3567 12.1685L21.5 11.2943L21.6434 12.1685L21.5 13.9336Z" fill="#2C2C6F"/>
<path d="M21.0229 13.781C20.9314 13.7718 20.8474 13.8212 20.8353 13.8915C20.8233 13.9618 20.8877 14.0262 20.9793 14.0355C21.0709 14.0447 21.1549 13.9953 21.1669 13.925C21.179 13.8547 21.1145 13.7903 21.0229 13.781Z" fill="#2C2C6F"/>
<path d="M22.5206 8.16341L21.9906 9.89796L21.5679 10.7192L21.7763 9.84751L22.5206 8.16341Z" fill="#2C2C6F"/>
<path d="M22.8794 8.40416C22.9541 8.43358 23.0519 8.4062 23.0979 8.34301C23.1439 8.27982 23.1207 8.20475 23.0461 8.17533C22.9714 8.14592 22.8736 8.1733 22.8276 8.23648C22.7815 8.29967 22.8048 8.37474 22.8794 8.40416Z" fill="#2C2C6F"/>
<path d="M20.4794 13.8361L21.0094 12.1015L21.4321 11.2803L21.2237 12.152L20.4794 13.8361Z" fill="#2C2C6F"/>
<path d="M20.1206 13.5954C20.0459 13.5659 19.9481 13.5933 19.9021 13.6565C19.8561 13.7197 19.8793 13.7948 19.9539 13.8242C20.0286 13.8536 20.1264 13.8262 20.1724 13.763C20.2185 13.6998 20.1952 13.6248 20.1206 13.5954Z" fill="#2C2C6F"/>
<path d="M23.4257 8.4538L22.3658 10.0395L21.6771 10.7514L22.1466 9.94144L23.4257 8.4538Z" fill="#2C2C6F"/>
<path d="M23.7155 8.77747C23.7835 8.81894 23.8885 8.8056 23.95 8.74769C24.0115 8.68978 24.0062 8.60922 23.9382 8.56775C23.8701 8.52629 23.7652 8.53962 23.7037 8.59754C23.6422 8.65545 23.6475 8.73601 23.7155 8.77747Z" fill="#2C2C6F"/>
<path d="M19.5744 13.5457L20.6342 11.96L21.323 11.2481L20.8534 12.0581L19.5744 13.5457Z" fill="#2C2C6F"/>
<path d="M19.2845 13.222C19.2165 13.1806 19.1115 13.1939 19.0501 13.2518C18.9886 13.3097 18.9939 13.3903 19.0619 13.4318C19.1299 13.4732 19.2349 13.4599 19.2964 13.402C19.3578 13.3441 19.3526 13.2635 19.2845 13.222Z" fill="#2C2C6F"/>
<path d="M24.2175 8.9217L22.658 10.2489L21.7562 10.7954L22.4848 10.1008L24.2175 8.9217Z" fill="#2C2C6F"/>
<path d="M24.3893 9.29438C24.4397 9.34943 24.5447 9.35812 24.6238 9.31379C24.7028 9.26947 24.726 9.18891 24.6756 9.13386C24.6251 9.07881 24.5201 9.07011 24.4411 9.11444C24.362 9.15877 24.3389 9.23933 24.3893 9.29438Z" fill="#2C2C6F"/>
<path d="M18.7826 13.0778L20.342 11.7506L21.2438 11.2041L20.5153 11.8987L18.7826 13.0778Z" fill="#2C2C6F"/>
<path d="M18.6108 12.7051C18.5603 12.6501 18.4553 12.6414 18.3763 12.6857C18.2972 12.73 18.2741 12.8106 18.3245 12.8657C18.3749 12.9207 18.4799 12.9294 18.559 12.8851C18.638 12.8407 18.6612 12.7602 18.6108 12.7051Z" fill="#2C2C6F"/>
<path d="M24.7984 9.54651L22.9056 10.52L21.8436 10.8406L22.7388 10.304L24.7984 9.54651Z" fill="#2C2C6F"/>
<path d="M24.8862 9.92105C24.9268 9.98968 25.0246 10.0259 25.1047 10.0019C25.1848 9.97792 25.217 9.90285 25.1764 9.83422C25.1359 9.76559 25.0381 9.7294 24.9579 9.75338C24.8778 9.77736 24.8457 9.85243 24.8862 9.92105Z" fill="#2C2C6F"/>
<path d="M18.2016 12.454L20.0944 11.4805L21.1564 11.1599L20.2612 11.6965L18.2016 12.454Z" fill="#2C2C6F"/>
<path d="M18.1138 12.0794C18.0732 12.0108 17.9754 11.9746 17.8953 11.9986C17.8152 12.0226 17.783 12.0976 17.8236 12.1663C17.8641 12.2349 17.9619 12.2711 18.0421 12.2471C18.1222 12.2231 18.1543 12.1481 18.1138 12.0794Z" fill="#2C2C6F"/>
<path d="M25.1944 10.2672L23.0043 10.8214L21.8678 10.898L22.9348 10.5567L25.1944 10.2672Z" fill="#2C2C6F"/>
<path d="M25.1226 10.6271C25.134 10.7014 25.218 10.7574 25.3102 10.7521C25.4024 10.7469 25.4679 10.6824 25.4565 10.6081C25.4451 10.5339 25.3611 10.4779 25.2689 10.4831C25.1767 10.4884 25.1112 10.5528 25.1226 10.6271Z" fill="#2C2C6F"/>
<path d="M17.8056 11.7333L19.9957 11.1791L21.1322 11.1025L20.0652 11.4438L17.8056 11.7333Z" fill="#2C2C6F"/>
<path d="M17.8774 11.3734C17.866 11.2991 17.782 11.2431 17.6898 11.2484C17.5976 11.2536 17.5321 11.3181 17.5435 11.3924C17.5549 11.4666 17.6389 11.5226 17.7311 11.5174C17.8233 11.5121 17.8888 11.4477 17.8774 11.3734Z" fill="#2C2C6F"/>
<path d="M25.3194 11.0727L23.0258 11.0134L21.8859 10.9279L23.0203 10.9383L25.3194 11.0727Z" fill="#2C2C6F"/>
<path d="M25.1052 11.3703C25.1071 11.4425 25.1911 11.5069 25.2928 11.5143C25.3946 11.5216 25.4756 11.469 25.4737 11.3968C25.4719 11.3246 25.3879 11.2602 25.2861 11.2528C25.1844 11.2455 25.1034 11.2981 25.1052 11.3703Z" fill="#2C2C6F"/>
<path d="M17.6805 10.9278L19.9741 10.987L21.1141 11.0726L19.9796 11.0622L17.6805 10.9278Z" fill="#2C2C6F"/>
<path d="M17.8947 10.6302C17.8929 10.558 17.8089 10.4935 17.7071 10.4862C17.6053 10.4789 17.5243 10.5315 17.5262 10.6037C17.528 10.6759 17.612 10.7403 17.7138 10.7476C17.8156 10.755 17.8966 10.7024 17.8947 10.6302Z" fill="#2C2C6F"/>
<path d="M25.2203 11.7424L22.952 11.4317L21.8418 11.0934L22.9695 11.1851L25.2203 11.7424Z" fill="#2C2C6F"/>
<path d="M24.8515 12.0785C24.8301 12.1467 24.8933 12.2218 24.9925 12.2462C25.0918 12.2706 25.1896 12.2351 25.211 12.1669C25.2324 12.0987 25.1693 12.0237 25.07 11.9992C24.9707 11.9748 24.8729 12.0103 24.8515 12.0785Z" fill="#2C2C6F"/>
<path d="M17.7797 10.2585L20.048 10.5693L21.1582 10.9076L20.0305 10.8159L17.7797 10.2585Z" fill="#2C2C6F"/>
<path d="M18.1485 9.92247C18.1699 9.85428 18.1067 9.7792 18.0075 9.75479C17.9082 9.73037 17.8104 9.76586 17.789 9.83405C17.7676 9.90224 17.8307 9.97731 17.93 10.0017C18.0293 10.0261 18.1271 9.99066 18.1485 9.92247Z" fill="#2C2C6F"/>
<path d="M24.7986 12.4546L22.739 11.6968L21.8435 11.1602L22.9055 11.481L24.7986 12.4546Z" fill="#2C2C6F"/>
<path d="M24.4103 12.712C24.3483 12.7704 24.3527 12.851 24.4201 12.892C24.4876 12.933 24.5926 12.9189 24.6546 12.8606C24.7166 12.8022 24.7122 12.7216 24.6447 12.6806C24.5773 12.6396 24.4723 12.6537 24.4103 12.712Z" fill="#2C2C6F"/>
<path d="M18.2016 9.54592L20.2612 10.3037L21.1566 10.8403L20.0946 10.5195L18.2016 9.54592Z" fill="#2C2C6F"/>
<path d="M18.5899 9.28846C18.6519 9.23009 18.6475 9.14953 18.58 9.10852C18.5126 9.0675 18.4076 9.08157 18.3456 9.13993C18.2836 9.19829 18.288 9.27885 18.3554 9.31987C18.4229 9.36088 18.5279 9.34682 18.5899 9.28846Z" fill="#2C2C6F"/>
<path d="M24.1843 13.0685L22.4628 11.9106L21.7896 11.2129L22.7026 11.7444L24.1843 13.0685Z" fill="#2C2C6F"/>
<path d="M23.7375 13.2274C23.6574 13.2719 23.6325 13.3524 23.6819 13.4073C23.7313 13.4622 23.8363 13.4707 23.9164 13.4262C23.9965 13.3818 24.0214 13.3012 23.972 13.2463C23.9226 13.1914 23.8176 13.1829 23.7375 13.2274Z" fill="#2C2C6F"/>
<path d="M18.8159 8.93104L20.5374 10.0889L21.2106 10.7866L20.2976 10.2552L18.8159 8.93104Z" fill="#2C2C6F"/>
<path d="M19.2627 8.77211C19.3428 8.72763 19.3677 8.64707 19.3184 8.59217C19.269 8.53727 19.164 8.52881 19.0839 8.57328C19.0038 8.61776 18.9789 8.69832 19.0283 8.75322C19.0777 8.80812 19.1826 8.81658 19.2627 8.77211Z" fill="#2C2C6F"/>
<path d="M23.3967 13.5451L22.1274 12.0621L21.7061 11.2515L22.4046 11.9601L23.3967 13.5451Z" fill="#2C2C6F"/>
<path d="M22.9061 13.5886C22.8167 13.6138 22.7696 13.6889 22.8009 13.7562C22.8322 13.8236 22.93 13.8577 23.0194 13.8324C23.1088 13.8071 23.1558 13.732 23.1245 13.6647C23.0932 13.5974 22.9954 13.5633 22.9061 13.5886Z" fill="#2C2C6F"/>
<path d="M19.6034 8.45584L20.8727 9.93885L21.294 10.7495L20.5955 10.0408L19.6034 8.45584Z" fill="#2C2C6F"/>
<path d="M20.0941 8.41241C20.1834 8.38714 20.2305 8.31206 20.1992 8.24474C20.1679 8.17741 20.0701 8.14331 19.9807 8.16859C19.8914 8.19387 19.8443 8.26894 19.8756 8.33627C19.9069 8.4036 20.0047 8.43769 20.0941 8.41241Z" fill="#2C2C6F"/>
<path d="M22.4692 13.8422L21.7423 12.1479L21.6196 11.2777L22.0596 12.1062L22.4692 13.8422Z" fill="#2C2C6F"/>
<path d="M21.984 13.7743C21.8887 13.7792 21.8181 13.8437 21.8264 13.9183C21.8347 13.9929 21.9187 14.0494 22.014 14.0445C22.1094 14.0396 22.1799 13.9752 22.1716 13.9005C22.1633 13.8259 22.0793 13.7694 21.984 13.7743Z" fill="#2C2C6F"/>
<path d="M20.531 8.15977L21.2579 9.854L21.3806 10.7243L20.9405 9.89579L20.531 8.15977Z" fill="#2C2C6F"/>
<path d="M21.0161 8.22762C21.1114 8.22271 21.182 8.15824 21.1737 8.08363C21.1654 8.00902 21.0814 7.95251 20.9861 7.95742C20.8908 7.96233 20.8202 8.02679 20.8285 8.10141C20.8368 8.17602 20.9208 8.23252 21.0161 8.22762Z" fill="#2C2C6F"/>
</g>
<defs>
<clipPath id="clip0_702_107">
<rect width="43" height="22" fill="white"/>
</clipPath>
</defs>
</svg>
